<svg xmlns="http://www.w3.org/2000/svg" viewBox="0 0 1600 900" role="img" aria-labelledby="title desc">
  <title id="title">Pawnhaven arrival placeholder</title>
  <desc id="desc">A rainy road, Marge by the inn, an occupied market, and the family house.</desc>
  <defs>
    <linearGradient id="sky" x1="0" y1="0" x2="0" y2="1"><stop stop-color="#082f49"/><stop offset="1" stop-color="#172033"/></linearGradient>
    <linearGradient id="road" x1="0" y1="0" x2="1" y2="1"><stop stop-color="#334155"/><stop offset="1" stop-color="#111827"/></linearGradient>
  </defs>
  <rect width="1600" height="900" fill="url(#sky)"/>
  <circle cx="1220" cy="155" r="82" fill="#fde68a" opacity=".18"/>
  <path d="M0 650L635 455 1600 655V900H0Z" fill="url(#road)"/>
  <path d="M1030 210h390v390h-390z" fill="#293548" stroke="#7dd3fc" stroke-opacity=".35" stroke-width="8"/>
  <path d="M980 250l245-155 250 155z" fill="#4c1d2f" stroke="#fca5a5" stroke-opacity=".3" stroke-width="8"/>
  <rect x="1170" y="410" width="100" height="190" rx="8" fill="#0f172a"/>
  <rect x="1070" y="315" width="90" height="100" fill="#fef3c7" opacity=".22"/>
  <rect x="1300" y="315" width="90" height="100" fill="#fef3c7" opacity=".22"/>
  <path d="M80 300h390v270H80z" fill="#3f2c2a" stroke="#fdba74" stroke-opacity=".3" stroke-width="8"/>
  <path d="M35 320l235-150 250 150z" fill="#78350f"/>
  <rect x="205" y="405" width="95" height="165" fill="#1e293b"/>
  <circle cx="284" cy="438" r="52" fill="#fb923c" opacity=".9"/>
  <path d="M205 590q80-150 160 0z" fill="#7c2d12"/>
  <path d="M704 94v235" stroke="#111827" stroke-width="18"/>
  <path d="M720 110h170l-45 72 45 72H720z" fill="#09090b" stroke="#fb7185" stroke-opacity=".4" stroke-width="6"/>
  <path d="M789 151l26-22 26 22-10 33h-32z" fill="#e11d48"/>
  <g fill="#94a3b8" opacity=".55"><path d="M500 580l260 90-30 85-270-90z"/><circle cx="505" cy="694" r="44"/><circle cx="725" cy="760" r="44"/></g>
  <g stroke="#bae6fd" stroke-width="5" opacity=".28"><path d="M90 30l-70 150M260 10L180 190M470 20L390 200M680 0l-85 200M930 5l-80 190M1180 10l-80 180M1430 0l-90 200"/></g>
  <text x="48" y="70" fill="#cffafe" font-family="sans-serif" font-size="28" font-weight="700" letter-spacing="7">PLACEHOLDER • PAWNHAVEN ARRIVAL</text>
</svg>
