<svg xmlns="http://www.w3.org/2000/svg" width="512" height="512" viewBox="0 0 256 256"><title>Blossom Chess Set</title><rect x="0" y="0" width="64" height="64" fill="#fff0f6"/><rect x="64" y="0" width="64" height="64" fill="#ba84ab"/><rect x="128" y="0" width="64" height="64" fill="#fff0f6"/><rect x="192" y="0" width="64" height="64" fill="#ba84ab"/><rect x="0" y="64" width="64" height="64" fill="#ba84ab"/><rect x="64" y="64" width="64" height="64" fill="#fff0f6"/><rect x="128" y="64" width="64" height="64" fill="#ba84ab"/><rect x="192" y="64" width="64" height="64" fill="#fff0f6"/><rect x="0" y="128" width="64" height="64" fill="#fff0f6"/><rect x="64" y="128" width="64" height="64" fill="#ba84ab"/><rect x="128" y="128" width="64" height="64" fill="#fff0f6"/><rect x="192" y="128" width="64" height="64" fill="#ba84ab"/><rect x="0" y="192" width="64" height="64" fill="#ba84ab"/><rect x="64" y="192" width="64" height="64" fill="#fff0f6"/><rect x="128" y="192" width="64" height="64" fill="#ba84ab"/><rect x="192" y="192" width="64" height="64" fill="#fff0f6"/><g transform="translate(64 0)"><svg viewBox="0 0 64 64" width="64" height="64" aria-hidden="true" focusable="false" data-blossom-piece="bR"><ellipse cx="33" cy="58" rx="21" ry="3" fill="#482345" opacity=".16"></ellipse><g stroke="#291a45" stroke-width="1.8" stroke-linecap="round" stroke-linejoin="round"><path d="M17 10H24V17H29V10H35V17H40V10H47V25L41 29V42L45 48H19L23 42V29L17 25Z" fill="#614077"></path><path d="M22 48H42Q46 48 47 52L49 56H15L17 52Q18 48 22 48Z" fill="#614077"></path><path d="M19 52H45" stroke="#efa8d4" stroke-width="2.5"></path><path d="M34 35L37 43" stroke="#b98bd0" stroke-width="3" opacity=".65"></path><path d="M18 25H46M24 30H40" fill="none"></path><path d="M30 36Q32 33 34 36V42H30Z" fill="#efa8d4" stroke="none"></path></g></svg></g><g transform="translate(128 0)"><svg viewBox="0 0 64 64" width="64" height="64" aria-hidden="true" focusable="false" data-blossom-piece="bK"><ellipse cx="33" cy="58" rx="21" ry="3" fill="#482345" opacity=".16"></ellipse><g stroke="#291a45" stroke-width="1.8" stroke-linecap="round" stroke-linejoin="round"><path d="M29 5H35V11H41V17H35V24Q46 18 49 28Q50 34 42 40L40 44L45 48H19L24 44L22 40Q14 34 15 28Q18 18 29 24V17H23V11H29Z" fill="#614077"></path><path d="M22 48H42Q46 48 47 52L49 56H15L17 52Q18 48 22 48Z" fill="#614077"></path><path d="M19 52H45" stroke="#efa8d4" stroke-width="2.5"></path><path d="M34 35L37 43" stroke="#b98bd0" stroke-width="3" opacity=".65"></path><path d="M23 40H41" stroke="#efa8d4" stroke-width="3"></path><path d="M32 29L35 32L32 35L29 32Z" fill="#efa8d4" stroke-width="1"></path></g></svg></g><g transform="translate(64 64)"><svg viewBox="0 0 64 64" width="64" height="64" aria-hidden="true" focusable="false" data-blossom-piece="bB"><ellipse cx="33" cy="58" rx="21" ry="3" fill="#482345" opacity=".16"></ellipse><g stroke="#291a45" stroke-width="1.8" stroke-linecap="round" stroke-linejoin="round"><path d="M26 33Q14 28 23 17L32 7L41 17Q50 28 38 33L36 36L39 44L44 48H20L25 44L28 36Z" fill="#614077"></path><path d="M22 48H42Q46 48 47 52L49 56H15L17 52Q18 48 22 48Z" fill="#614077"></path><path d="M19 52H45" stroke="#efa8d4" stroke-width="2.5"></path><path d="M34 35L37 43" stroke="#b98bd0" stroke-width="3" opacity=".65"></path><path d="M35 15L28 25" stroke-width="3"></path><g transform="translate(32 32)" fill="#efa8d4" stroke-width="1"><path d="M0 0Q-9-8-8 0Q-9 8 0 2Q9 8 8 0Q9-8 0 0Z"></path><circle cx="0" cy="1" r="2" fill="#b98bd0"></circle></g></g></svg></g><g transform="translate(128 64)"><svg viewBox="0 0 64 64" width="64" height="64" aria-hidden="true" focusable="false" data-blossom-piece="bN"><ellipse cx="33" cy="58" rx="21" ry="3" fill="#482345" opacity=".16"></ellipse><g stroke="#291a45" stroke-width="1.8" stroke-linecap="round" stroke-linejoin="round"><path d="M20 48L22 39L33 28L25 32Q22 34 18 31L12 26L18 17L26 12L29 5L35 11Q48 12 49 26L46 48Z" fill="#614077"></path><path d="M22 48H42Q46 48 47 52L49 56H15L17 52Q18 48 22 48Z" fill="#614077"></path><path d="M19 52H45" stroke="#efa8d4" stroke-width="2.5"></path><path d="M37 16Q43 20 42 31L38 42" stroke="#b98bd0" stroke-width="3" opacity=".65"></path><circle cx="29" cy="20" r="1.8" fill="#291a45" stroke="none"></circle><path d="M16 26L21 27M36 13Q42 19 40 26" fill="none"></path><g transform="translate(38 38)" fill="#efa8d4" stroke-width="1"><path d="M0 0Q-9-8-8 0Q-9 8 0 2Q9 8 8 0Q9-8 0 0Z"></path><circle cx="0" cy="1" r="2" fill="#b98bd0"></circle></g></g></svg></g><g transform="translate(64 128)"><svg viewBox="0 0 64 64" width="64" height="64" aria-hidden="true" focusable="false" data-blossom-piece="wP"><ellipse cx="33" cy="58" rx="21" ry="3" fill="#482345" opacity=".16"></ellipse><g stroke="#813b68" stroke-width="1.8" stroke-linecap="round" stroke-linejoin="round"><path d="M25 28C17 22 21 9 32 9S47 22 39 28L36 31C36 38 38 44 43 48H21C26 44 28 38 28 31Z" fill="#fff9fd"></path><path d="M22 48H42Q46 48 47 52L49 56H15L17 52Q18 48 22 48Z" fill="#fff9fd"></path><path d="M19 52H45" stroke="#d967a3" stroke-width="2.5"></path><path d="M34 35L37 43" stroke="#ffffff" stroke-width="3" opacity=".65"></path><g transform="translate(32 32)" fill="#d967a3" stroke-width="1"><path d="M0 0Q-9-8-8 0Q-9 8 0 2Q9 8 8 0Q9-8 0 0Z"></path><circle cx="0" cy="1" r="2" fill="#ffffff"></circle></g></g></svg></g><g transform="translate(128 128)"><svg viewBox="0 0 64 64" width="64" height="64" aria-hidden="true" focusable="false" data-blossom-piece="wB"><ellipse cx="33" cy="58" rx="21" ry="3" fill="#482345" opacity=".16"></ellipse><g stroke="#813b68" stroke-width="1.8" stroke-linecap="round" stroke-linejoin="round"><path d="M26 33Q14 28 23 17L32 7L41 17Q50 28 38 33L36 36L39 44L44 48H20L25 44L28 36Z" fill="#fff9fd"></path><path d="M22 48H42Q46 48 47 52L49 56H15L17 52Q18 48 22 48Z" fill="#fff9fd"></path><path d="M19 52H45" stroke="#d967a3" stroke-width="2.5"></path><path d="M34 35L37 43" stroke="#ffffff" stroke-width="3" opacity=".65"></path><path d="M35 15L28 25" stroke-width="3"></path><g transform="translate(32 32)" fill="#d967a3" stroke-width="1"><path d="M0 0Q-9-8-8 0Q-9 8 0 2Q9 8 8 0Q9-8 0 0Z"></path><circle cx="0" cy="1" r="2" fill="#ffffff"></circle></g></g></svg></g><g transform="translate(64 192)"><svg viewBox="0 0 64 64" width="64" height="64" aria-hidden="true" focusable="false" data-blossom-piece="wQ"><ellipse cx="33" cy="58" rx="21" ry="3" fill="#482345" opacity=".16"></ellipse><g stroke="#813b68" stroke-width="1.8" stroke-linecap="round" stroke-linejoin="round"><path d="M20 40L14 17L24 26L32 12L40 26L50 17L44 40L40 44L45 48H19L24 44Z" fill="#fff9fd"></path><path d="M22 48H42Q46 48 47 52L49 56H15L17 52Q18 48 22 48Z" fill="#fff9fd"></path><path d="M19 52H45" stroke="#d967a3" stroke-width="2.5"></path><path d="M34 35L37 43" stroke="#ffffff" stroke-width="3" opacity=".65"></path><path d="M22 40H42" stroke="#d967a3" stroke-width="3"></path><circle cx="14" cy="14" r="3" fill="#d967a3"></circle><circle cx="32" cy="9" r="3" fill="#d967a3"></circle><circle cx="50" cy="14" r="3" fill="#d967a3"></circle><path d="M32 28L36 32L32 36L28 32Z" fill="#d967a3" stroke-width="1"></path></g></svg></g><g transform="translate(128 192)"><svg viewBox="0 0 64 64" width="64" height="64" aria-hidden="true" focusable="false" data-blossom-piece="wN"><ellipse cx="33" cy="58" rx="21" ry="3" fill="#482345" opacity=".16"></ellipse><g stroke="#813b68" stroke-width="1.8" stroke-linecap="round" stroke-linejoin="round"><path d="M20 48L22 39L33 28L25 32Q22 34 18 31L12 26L18 17L26 12L29 5L35 11Q48 12 49 26L46 48Z" fill="#fff9fd"></path><path d="M22 48H42Q46 48 47 52L49 56H15L17 52Q18 48 22 48Z" fill="#fff9fd"></path><path d="M19 52H45" stroke="#d967a3" stroke-width="2.5"></path><path d="M37 16Q43 20 42 31L38 42" stroke="#ffffff" stroke-width="3" opacity=".65"></path><circle cx="29" cy="20" r="1.8" fill="#813b68" stroke="none"></circle><path d="M16 26L21 27M36 13Q42 19 40 26" fill="none"></path><g transform="translate(38 38)" fill="#d967a3" stroke-width="1"><path d="M0 0Q-9-8-8 0Q-9 8 0 2Q9 8 8 0Q9-8 0 0Z"></path><circle cx="0" cy="1" r="2" fill="#ffffff"></circle></g></g></svg></g></svg>
